<?xml version="1.0" encoding="UTF-8" standalone="no"?>
<!DOCTYPE svg PUBLIC "-//W3C//DTD SVG 1.1//EN"
 "http://www.w3.org/Graphics/SVG/1.1/DTD/svg11.dtd">
<!-- Generated by graphviz version 14.1.2 (20260124.0452)
 -->
<!-- Title: G Pages: 1 -->
<svg width="394pt" height="657pt"
 viewBox="0.00 0.00 394.00 657.00" xmlns="http://www.w3.org/2000/svg" xmlns:xlink="http://www.w3.org/1999/xlink">
<g id="graph0" class="graph" transform="scale(1 1) rotate(0) translate(4 653)">
<title>G</title><style>.edge>path:hover{stroke-width:8}</style>
<polygon fill="white" stroke="none" points="-4,4 -4,-653 390.03,-653 390.03,4 -4,4"/>
<!-- app_py -->
<g id="node1" class="node">
<title>app_py</title><style>.edge>path:hover{stroke-width:8}</style>
<ellipse fill="#a65959" stroke="black" cx="166.24" cy="-18" rx="27" ry="18"/>
<text xml:space="preserve" text-anchor="middle" x="166.24" y="-14.12" font-family="Helvetica,sans-Serif" font-size="10.00" fill="#ffffff">app.py</text>
</g>
<!-- flask -->
<g id="node2" class="node">
<title>flask</title><style>.edge>path:hover{stroke-width:8}</style>
<polygon fill="blue" stroke="black" points="193.24,-145 139.24,-145 139.24,-109 193.24,-109 193.24,-145"/>
<text xml:space="preserve" text-anchor="middle" x="166.24" y="-123.12" font-family="Helvetica,sans-Serif" font-size="10.00" fill="white">flask</text>
</g>
<!-- flask&#45;&gt;app_py -->
<g id="edge1" class="edge">
<title>flask&#45;&gt;app_py</title><style>.edge>path:hover{stroke-width:8}</style>
<path fill="none" stroke="black" d="M166.24,-108.81C166.24,-92.27 166.24,-66.98 166.24,-47.44"/>
<polygon fill="blue" stroke="black" points="169.74,-47.66 166.24,-37.66 162.74,-47.66 169.74,-47.66"/>
</g>
<!-- flask_app -->
<g id="node3" class="node">
<title>flask_app</title><style>.edge>path:hover{stroke-width:8}</style>
<polygon fill="blue" stroke="black" points="213.11,-577 157.36,-577 157.36,-541 213.11,-541 213.11,-577"/>
<text xml:space="preserve" text-anchor="middle" x="185.24" y="-555.12" font-family="Helvetica,sans-Serif" font-size="10.00" fill="white">flask.app</text>
</g>
<!-- flask_app&#45;&gt;flask -->
<g id="edge2" class="edge">
<title>flask_app&#45;&gt;flask</title><style>.edge>path:hover{stroke-width:8}</style>
<path fill="none" stroke="black" d="M171.96,-540.83C135.92,-492.97 36.85,-352.61 5.24,-217 1.61,-201.42 -4.14,-193.96 5.24,-181 32.99,-142.65 89.43,-131.57 127.55,-128.63"/>
<polygon fill="blue" stroke="black" points="127.46,-132.14 137.23,-128.05 127.04,-125.15 127.46,-132.14"/>
</g>
<!-- flask_ctx -->
<g id="node6" class="node">
<title>flask_ctx</title><style>.edge>path:hover{stroke-width:8}</style>
<polygon fill="blue" stroke="black" points="348.24,-505 294.24,-505 294.24,-469 348.24,-469 348.24,-505"/>
<text xml:space="preserve" text-anchor="middle" x="321.24" y="-483.12" font-family="Helvetica,sans-Serif" font-size="10.00" fill="white">flask.ctx</text>
</g>
<!-- flask_app&#45;&gt;flask_ctx -->
<g id="edge3" class="edge">
<title>flask_app&#45;&gt;flask_ctx</title><style>.edge>path:hover{stroke-width:8}</style>
<path fill="none" stroke="black" d="M223.62,-538.24C242.47,-528.54 265.08,-516.9 283.8,-507.27"/>
<polygon fill="blue" stroke="black" points="222.05,-535.11 214.76,-542.8 225.26,-541.34 222.05,-535.11"/>
<polygon fill="blue" stroke="black" points="285.39,-510.39 292.68,-502.7 282.18,-504.16 285.39,-510.39"/>
</g>
<!-- flask_globals -->
<g id="node7" class="node">
<title>flask_globals</title><style>.edge>path:hover{stroke-width:8}</style>
<polygon fill="blue" stroke="black" points="259.61,-433 188.86,-433 188.86,-397 259.61,-397 259.61,-433"/>
<text xml:space="preserve" text-anchor="middle" x="224.24" y="-411.12" font-family="Helvetica,sans-Serif" font-size="10.00" fill="white">flask.globals</text>
</g>
<!-- flask_app&#45;&gt;flask_globals -->
<g id="edge4" class="edge">
<title>flask_app&#45;&gt;flask_globals</title><style>.edge>path:hover{stroke-width:8}</style>
<path fill="none" stroke="black" d="M193.04,-529.6C199.88,-504.7 209.76,-468.71 216.56,-443.94"/>
<polygon fill="blue" stroke="black" points="189.7,-528.56 190.42,-539.13 196.45,-530.41 189.7,-528.56"/>
<polygon fill="blue" stroke="black" points="219.86,-445.14 219.14,-434.57 213.11,-443.29 219.86,-445.14"/>
</g>
<!-- flask_templating -->
<g id="node11" class="node">
<title>flask_templating</title><style>.edge>path:hover{stroke-width:8}</style>
<polygon fill="blue" stroke="black" points="75.74,-217 14.74,-217 14.74,-181 75.74,-181 75.74,-217"/>
<text xml:space="preserve" text-anchor="middle" x="45.24" y="-200.75" font-family="Helvetica,sans-Serif" font-size="10.00" fill="white">flask.</text>
<text xml:space="preserve" text-anchor="middle" x="45.24" y="-189.5" font-family="Helvetica,sans-Serif" font-size="10.00" fill="white">templating</text>
</g>
<!-- flask_app&#45;&gt;flask_templating -->
<g id="edge5" class="edge">
<title>flask_app&#45;&gt;flask_templating</title><style>.edge>path:hover{stroke-width:8}</style>
<path fill="none" stroke="black" d="M174.46,-530.44C148.38,-463.76 82.12,-294.32 56.03,-227.6"/>
<polygon fill="blue" stroke="black" points="171.03,-531.28 177.94,-539.32 177.55,-528.74 171.03,-531.28"/>
<polygon fill="blue" stroke="black" points="59.38,-226.54 52.47,-218.5 52.86,-229.09 59.38,-226.54"/>
</g>
<!-- flask_blueprints -->
<g id="node4" class="node">
<title>flask_blueprints</title><style>.edge>path:hover{stroke-width:8}</style>
<polygon fill="blue" stroke="black" points="286.24,-217 228.24,-217 228.24,-181 286.24,-181 286.24,-217"/>
<text xml:space="preserve" text-anchor="middle" x="257.24" y="-200.75" font-family="Helvetica,sans-Serif" font-size="10.00" fill="white">flask.</text>
<text xml:space="preserve" text-anchor="middle" x="257.24" y="-189.5" font-family="Helvetica,sans-Serif" font-size="10.00" fill="white">blueprints</text>
</g>
<!-- flask_blueprints&#45;&gt;flask -->
<g id="edge6" class="edge">
<title>flask_blueprints&#45;&gt;flask</title><style>.edge>path:hover{stroke-width:8}</style>
<path fill="none" stroke="black" d="M234.74,-180.7C223.59,-172.11 209.93,-161.61 197.75,-152.24"/>
<polygon fill="blue" stroke="black" points="200.05,-149.59 189.99,-146.27 195.78,-155.14 200.05,-149.59"/>
</g>
<!-- flask_config -->
<g id="node5" class="node">
<title>flask_config</title><style>.edge>path:hover{stroke-width:8}</style>
<ellipse fill="#53b6b6" stroke="black" cx="133.24" cy="-199" rx="39.2" ry="18"/>
<text xml:space="preserve" text-anchor="middle" x="133.24" y="-195.12" font-family="Helvetica,sans-Serif" font-size="10.00" fill="#000000">flask.config</text>
</g>
<!-- flask_config&#45;&gt;flask -->
<g id="edge7" class="edge">
<title>flask_config&#45;&gt;flask</title><style>.edge>path:hover{stroke-width:8}</style>
<path fill="none" stroke="black" d="M141.23,-181.05C144.82,-173.43 149.16,-164.23 153.2,-155.65"/>
<polygon fill="#53b6b6" stroke="black" points="156.35,-157.18 157.45,-146.64 150.02,-154.2 156.35,-157.18"/>
</g>
<!-- flask_ctx&#45;&gt;flask -->
<g id="edge8" class="edge">
<title>flask_ctx&#45;&gt;flask</title><style>.edge>path:hover{stroke-width:8}</style>
<path fill="none" stroke="black" d="M376.24,-414C387.69,-351.94 359.77,-332.92 376.24,-272"/>
<path fill="none" stroke="black" d="M342.92,-468.77C356.69,-455.99 372.6,-437.17 376.24,-416"/>
</g>
<!-- flask_ctx&#45;&gt;flask_globals -->
<g id="edge10" class="edge">
<title>flask_ctx&#45;&gt;flask_globals</title><style>.edge>path:hover{stroke-width:8}</style>
<path fill="none" stroke="black" d="M288.1,-462.08C278.19,-454.94 267.33,-447.1 257.42,-439.95"/>
<polygon fill="blue" stroke="black" points="285.88,-464.8 296.03,-467.81 289.97,-459.12 285.88,-464.8"/>
<polygon fill="blue" stroke="black" points="259.66,-437.25 249.5,-434.23 255.56,-442.92 259.66,-437.25"/>
</g>
<!-- flask_globals&#45;&gt;flask -->
<g id="edge11" class="edge">
<title>flask_globals&#45;&gt;flask</title><style>.edge>path:hover{stroke-width:8}</style>
<path fill="none" stroke="black" d="M224.24,-270C225.27,-237.13 205.65,-232.44 200.24,-200"/>
<path fill="none" stroke="black" d="M224.24,-342C226.45,-310.97 223.27,-303.1 224.24,-272"/>
</g>
<!-- flask_globals&#45;&gt;flask_blueprints -->
<g id="edge13" class="edge">
<title>flask_globals&#45;&gt;flask_blueprints</title><style>.edge>path:hover{stroke-width:8}</style>
<path fill="none" stroke="black" d="M224.24,-270C224.71,-254.89 231.14,-239.54 238.2,-227.09"/>
<polygon fill="blue" stroke="black" points="241.13,-229.01 243.37,-218.66 235.16,-225.35 241.13,-229.01"/>
</g>
<!-- flask_helpers -->
<g id="node8" class="node">
<title>flask_helpers</title><style>.edge>path:hover{stroke-width:8}</style>
<polygon fill="blue" stroke="black" points="195.99,-289 124.49,-289 124.49,-253 195.99,-253 195.99,-289"/>
<text xml:space="preserve" text-anchor="middle" x="160.24" y="-267.12" font-family="Helvetica,sans-Serif" font-size="10.00" fill="white">flask.helpers</text>
</g>
<!-- flask_globals&#45;&gt;flask_helpers -->
<g id="edge15" class="edge">
<title>flask_globals&#45;&gt;flask_helpers</title><style>.edge>path:hover{stroke-width:8}</style>
<path fill="none" stroke="black" d="M223.55,-396.72C223.16,-382.53 222.96,-361.94 224.24,-344"/>
<path fill="none" stroke="black" d="M224.24,-342C225.55,-323.64 213.51,-307.96 199.53,-296.13"/>
<polygon fill="blue" stroke="black" points="201.92,-293.56 191.87,-290.2 197.63,-299.09 201.92,-293.56"/>
</g>
<!-- flask_json -->
<g id="node9" class="node">
<title>flask_json</title><style>.edge>path:hover{stroke-width:8}</style>
<polygon fill="blue" stroke="black" points="348.24,-289 290.24,-289 290.24,-253 348.24,-253 348.24,-289"/>
<text xml:space="preserve" text-anchor="middle" x="319.24" y="-267.12" font-family="Helvetica,sans-Serif" font-size="10.00" fill="white">flask.json</text>
</g>
<!-- flask_globals&#45;&gt;flask_json -->
<g id="edge16" class="edge">
<title>flask_globals&#45;&gt;flask_json</title><style>.edge>path:hover{stroke-width:8}</style>
<path fill="none" stroke="black" d="M224.24,-342C226.27,-313.48 254.33,-295.25 279.42,-284.57"/>
<polygon fill="blue" stroke="black" points="280.48,-287.92 288.5,-281 277.92,-281.4 280.48,-287.92"/>
</g>
<!-- flask_globals&#45;&gt;flask_templating -->
<g id="edge17" class="edge">
<title>flask_globals&#45;&gt;flask_templating</title><style>.edge>path:hover{stroke-width:8}</style>
<path fill="none" stroke="black" d="M208.79,-396.85C187.41,-372.98 147.75,-328.25 115.24,-289 97.94,-268.12 78.96,-243.89 65.13,-226"/>
<polygon fill="blue" stroke="black" points="68.2,-224.25 59.33,-218.47 62.66,-228.52 68.2,-224.25"/>
</g>
<!-- flask_wrappers -->
<g id="node12" class="node">
<title>flask_wrappers</title><style>.edge>path:hover{stroke-width:8}</style>
<polygon fill="blue" stroke="black" points="332.11,-361 252.36,-361 252.36,-325 332.11,-325 332.11,-361"/>
<text xml:space="preserve" text-anchor="middle" x="292.24" y="-339.12" font-family="Helvetica,sans-Serif" font-size="10.00" fill="white">flask.wrappers</text>
</g>
<!-- flask_globals&#45;&gt;flask_wrappers -->
<g id="edge18" class="edge">
<title>flask_globals&#45;&gt;flask_wrappers</title><style>.edge>path:hover{stroke-width:8}</style>
<path fill="none" stroke="black" d="M248.87,-388.64C254.99,-382.35 261.54,-375.61 267.65,-369.32"/>
<polygon fill="blue" stroke="black" points="246.56,-386 242.1,-395.61 251.58,-390.88 246.56,-386"/>
<polygon fill="blue" stroke="black" points="270.11,-371.8 274.57,-362.19 265.09,-366.92 270.11,-371.8"/>
</g>
<!-- flask_helpers&#45;&gt;flask -->
<g id="edge19" class="edge">
<title>flask_helpers&#45;&gt;flask</title><style>.edge>path:hover{stroke-width:8}</style>
<path fill="none" stroke="black" d="M200.24,-198C197.74,-183.01 190.87,-167.67 183.95,-155.19"/>
<polygon fill="blue" stroke="black" points="187.08,-153.61 179,-146.76 181.05,-157.15 187.08,-153.61"/>
<path fill="none" stroke="black" d="M178.66,-252.66C190.66,-239.27 203.53,-219.74 200.24,-200"/>
</g>
<!-- flask_helpers&#45;&gt;flask_app -->
<g id="edge20" class="edge">
<title>flask_helpers&#45;&gt;flask_app</title><style>.edge>path:hover{stroke-width:8}</style>
<path fill="none" stroke="black" d="M161.75,-289.23C165.9,-336.74 177.54,-469.97 182.71,-529.1"/>
<polygon fill="blue" stroke="black" points="179.22,-529.37 183.58,-539.03 186.2,-528.77 179.22,-529.37"/>
</g>
<!-- flask_helpers&#45;&gt;flask_blueprints -->
<g id="edge21" class="edge">
<title>flask_helpers&#45;&gt;flask_blueprints</title><style>.edge>path:hover{stroke-width:8}</style>
<path fill="none" stroke="black" d="M184.22,-252.7C196.22,-244.03 210.96,-233.4 224.03,-223.96"/>
<polygon fill="blue" stroke="black" points="225.91,-226.92 231.97,-218.23 221.82,-221.25 225.91,-226.92"/>
</g>
<!-- flask_helpers&#45;&gt;flask_templating -->
<g id="edge22" class="edge">
<title>flask_helpers&#45;&gt;flask_templating</title><style>.edge>path:hover{stroke-width:8}</style>
<path fill="none" stroke="black" d="M131.52,-252.52C116.86,-243.6 98.85,-232.63 83.08,-223.03"/>
<polygon fill="blue" stroke="black" points="85.25,-220.26 74.89,-218.05 81.61,-226.24 85.25,-220.26"/>
</g>
<!-- flask_json&#45;&gt;flask -->
<g id="edge24" class="edge">
<title>flask_json&#45;&gt;flask</title><style>.edge>path:hover{stroke-width:8}</style>
<path fill="none" stroke="black" d="M348.62,-252.74C367,-239.54 385.55,-220.21 376.24,-200"/>
<path fill="none" stroke="black" d="M376.24,-198C361.57,-166.16 261.16,-144.15 204.66,-134.13"/>
<polygon fill="blue" stroke="black" points="205.6,-130.74 195.15,-132.49 204.41,-137.64 205.6,-130.74"/>
</g>
<!-- flask_signals -->
<g id="node10" class="node">
<title>flask_signals</title><style>.edge>path:hover{stroke-width:8}</style>
<ellipse fill="#22e7e7" stroke="black" cx="185.24" cy="-631" rx="41.86" ry="18"/>
<text xml:space="preserve" text-anchor="middle" x="185.24" y="-627.12" font-family="Helvetica,sans-Serif" font-size="10.00" fill="#000000">flask.signals</text>
</g>
<!-- flask_signals&#45;&gt;flask -->
<g id="edge26" class="edge">
<title>flask_signals&#45;&gt;flask</title><style>.edge>path:hover{stroke-width:8}</style>
<path fill="none" stroke="black" d="M376.24,-558C402.13,-500.44 365.54,-478.2 376.24,-416"/>
</g>
<!-- flask_signals&#45;&gt;flask_app -->
<g id="edge27" class="edge">
<title>flask_signals&#45;&gt;flask_app</title><style>.edge>path:hover{stroke-width:8}</style>
<path fill="none" stroke="black" d="M185.24,-612.7C185.24,-605.41 185.24,-596.73 185.24,-588.54"/>
<polygon fill="#22e7e7" stroke="black" points="188.74,-588.62 185.24,-578.62 181.74,-588.62 188.74,-588.62"/>
</g>
<!-- flask_signals&#45;&gt;flask_ctx -->
<g id="edge28" class="edge">
<title>flask_signals&#45;&gt;flask_ctx</title><style>.edge>path:hover{stroke-width:8}</style>
<path fill="none" stroke="black" d="M376.24,-558C383.92,-540.92 372,-524.32 357.32,-511.57"/>
<polygon fill="#22e7e7" stroke="black" points="359.67,-508.97 349.66,-505.48 355.31,-514.45 359.67,-508.97"/>
<path fill="none" stroke="black" d="M227.51,-630.12C275.91,-627.58 351.68,-614.59 376.24,-560"/>
</g>
<!-- flask_signals&#45;&gt;flask_helpers -->
<g id="edge29" class="edge">
<title>flask_signals&#45;&gt;flask_helpers</title><style>.edge>path:hover{stroke-width:8}</style>
<path fill="none" stroke="black" d="M20.24,-414C6.54,-358.7 68.3,-315.82 114.17,-292.24"/>
<polygon fill="#22e7e7" stroke="black" points="115.51,-295.49 122.91,-287.9 112.39,-289.22 115.51,-295.49"/>
</g>
<!-- flask_signals&#45;&gt;flask_templating -->
<g id="edge30" class="edge">
<title>flask_signals&#45;&gt;flask_templating</title><style>.edge>path:hover{stroke-width:8}</style>
<path fill="none" stroke="black" d="M164.52,-614.94C123.71,-583.55 35.56,-506.43 20.24,-416"/>
<path fill="none" stroke="black" d="M20.24,-414C-2.67,-350.29 19.31,-269.71 34.16,-227.95"/>
<polygon fill="#22e7e7" stroke="black" points="37.4,-229.26 37.59,-218.66 30.84,-226.83 37.4,-229.26"/>
</g>
<!-- flask_templating&#45;&gt;flask -->
<g id="edge31" class="edge">
<title>flask_templating&#45;&gt;flask</title><style>.edge>path:hover{stroke-width:8}</style>
<path fill="none" stroke="black" d="M75.46,-180.52C91.73,-171.11 111.93,-159.42 129.14,-149.46"/>
<polygon fill="blue" stroke="black" points="130.67,-152.62 137.57,-144.59 127.16,-146.56 130.67,-152.62"/>
</g>
<!-- flask_wrappers&#45;&gt;flask -->
<g id="edge33" class="edge">
<title>flask_wrappers&#45;&gt;flask</title><style>.edge>path:hover{stroke-width:8}</style>
<path fill="none" stroke="black" d="M376.24,-270C384.36,-239.97 389.26,-228.26 376.24,-200"/>
<path fill="none" stroke="black" d="M329.48,-324.59C348.9,-312.96 369.9,-295.46 376.24,-272"/>
</g>
<!-- flask_wrappers&#45;&gt;flask_app -->
<g id="edge34" class="edge">
<title>flask_wrappers&#45;&gt;flask_app</title><style>.edge>path:hover{stroke-width:8}</style>
<path fill="none" stroke="black" d="M290.44,-361.24C289.37,-372.52 288.12,-387.87 287.54,-402.77"/>
<polygon fill="blue" stroke="black" points="284.05,-402.4 287.28,-412.49 291.04,-402.58 284.05,-402.4"/>
<path fill="none" stroke="black" d="M287.24,-416C287.79,-469.27 239.65,-516.24 209.32,-540.51"/>
</g>
<!-- flask_wrappers&#45;&gt;flask_blueprints -->
<g id="edge35" class="edge">
<title>flask_wrappers&#45;&gt;flask_blueprints</title><style>.edge>path:hover{stroke-width:8}</style>
<path fill="none" stroke="black" d="M287.95,-324.59C282.01,-300.5 271.23,-256.75 264.15,-228.03"/>
<polygon fill="blue" stroke="black" points="267.61,-227.45 261.82,-218.58 260.81,-229.13 267.61,-227.45"/>
</g>
<!-- flask_wrappers&#45;&gt;flask_ctx -->
<g id="edge36" class="edge">
<title>flask_wrappers&#45;&gt;flask_ctx</title><style>.edge>path:hover{stroke-width:8}</style>
<path fill="none" stroke="black" d="M287.24,-416C287.44,-435.45 298.17,-455.17 307.53,-468.7"/>
</g>
<!-- flask_wrappers&#45;&gt;flask_helpers -->
<g id="edge38" class="edge">
<title>flask_wrappers&#45;&gt;flask_helpers</title><style>.edge>path:hover{stroke-width:8}</style>
<path fill="none" stroke="black" d="M249.12,-319.14C234.23,-311.24 217.57,-302.4 202.73,-294.53"/>
<polygon fill="blue" stroke="black" points="247.46,-322.21 257.93,-323.81 250.74,-316.03 247.46,-322.21"/>
<polygon fill="blue" stroke="black" points="204.6,-291.56 194.12,-289.97 201.32,-297.75 204.6,-291.56"/>
</g>
<!-- flask_wrappers&#45;&gt;flask_json -->
<g id="edge39" class="edge">
<title>flask_wrappers&#45;&gt;flask_json</title><style>.edge>path:hover{stroke-width:8}</style>
<path fill="none" stroke="black" d="M303,-314.1C304.83,-309.34 306.74,-304.41 308.57,-299.66"/>
<polygon fill="blue" stroke="black" points="299.79,-312.69 299.46,-323.28 306.32,-315.21 299.79,-312.69"/>
<polygon fill="blue" stroke="black" points="311.76,-301.11 312.1,-290.52 305.23,-298.59 311.76,-301.11"/>
</g>
</g>
</svg>
