<?xml version="1.0" encoding="UTF-8" standalone="no"?>
<!DOCTYPE svg PUBLIC "-//W3C//DTD SVG 1.1//EN"
 "http://www.w3.org/Graphics/SVG/1.1/DTD/svg11.dtd">
<!-- Generated by graphviz version 14.1.2 (20260124.0452)
 -->
<!-- Title: G Pages: 1 -->
<svg width="533pt" height="153pt"
 viewBox="0.00 0.00 533.00 153.00" xmlns="http://www.w3.org/2000/svg" xmlns:xlink="http://www.w3.org/1999/xlink">
<g id="graph0" class="graph" transform="scale(1 1) rotate(0) translate(4 149)">
<title>G</title><style>.edge>path:hover{stroke-width:8}</style>
<polygon fill="white" stroke="none" points="-4,4 -4,-149 529.07,-149 529.07,4 -4,4"/>
<!-- bs4 -->
<g id="node1" class="node">
<title>bs4</title><style>.edge>path:hover{stroke-width:8}</style>
<ellipse fill="#c24747" stroke="black" cx="53.99" cy="-127" rx="27" ry="18"/>
<text xml:space="preserve" text-anchor="middle" x="53.99" y="-123.12" font-family="Helvetica,sans-Serif" font-size="10.00" fill="#ffffff">bs4</text>
</g>
<!-- src_clean -->
<g id="node6" class="node">
<title>src_clean</title><style>.edge>path:hover{stroke-width:8}</style>
<ellipse fill="#4971ac" stroke="black" cx="32.99" cy="-18" rx="32.99" ry="18"/>
<text xml:space="preserve" text-anchor="middle" x="32.99" y="-14.12" font-family="Helvetica,sans-Serif" font-size="10.00" fill="#ffffff">src.clean</text>
</g>
<!-- bs4&#45;&gt;src_clean -->
<g id="edge1" class="edge">
<title>bs4&#45;&gt;src_clean</title><style>.edge>path:hover{stroke-width:8}</style>
<path fill="none" stroke="black" d="M60.42,-109.06C64.07,-98.77 68.42,-85.3 70.99,-73"/>
<path fill="none" stroke="black" d="M70.99,-72C73.35,-60.7 67.8,-49.99 60.26,-41.19"/>
<polygon fill="#c24747" stroke="black" points="62.85,-38.84 53.35,-34.16 57.86,-43.75 62.85,-38.84"/>
</g>
<!-- src_scrape -->
<g id="node10" class="node">
<title>src_scrape</title><style>.edge>path:hover{stroke-width:8}</style>
<ellipse fill="#4971ac" stroke="black" cx="120.99" cy="-18" rx="36.54" ry="18"/>
<text xml:space="preserve" text-anchor="middle" x="120.99" y="-14.12" font-family="Helvetica,sans-Serif" font-size="10.00" fill="#ffffff">src.scrape</text>
</g>
<!-- bs4&#45;&gt;src_scrape -->
<g id="edge2" class="edge">
<title>bs4&#45;&gt;src_scrape</title><style>.edge>path:hover{stroke-width:8}</style>
<path fill="none" stroke="black" d="M70.99,-72C73.56,-59.71 81.65,-48.98 90.6,-40.45"/>
<polygon fill="#c24747" stroke="black" points="92.85,-43.13 98.14,-33.95 88.28,-37.83 92.85,-43.13"/>
</g>
<!-- flask -->
<g id="node2" class="node">
<title>flask</title><style>.edge>path:hover{stroke-width:8}</style>
<ellipse fill="#a6c040" stroke="black" cx="203.99" cy="-127" rx="27" ry="18"/>
<text xml:space="preserve" text-anchor="middle" x="203.99" y="-123.12" font-family="Helvetica,sans-Serif" font-size="10.00" fill="#000000">flask</text>
</g>
<!-- src_app -->
<g id="node5" class="node">
<title>src_app</title><style>.edge>path:hover{stroke-width:8}</style>
<ellipse fill="#4c75b3" stroke="black" cx="203.99" cy="-18" rx="28.55" ry="18"/>
<text xml:space="preserve" text-anchor="middle" x="203.99" y="-14.12" font-family="Helvetica,sans-Serif" font-size="10.00" fill="#ffffff">src.app</text>
</g>
<!-- flask&#45;&gt;src_app -->
<g id="edge3" class="edge">
<title>flask&#45;&gt;src_app</title><style>.edge>path:hover{stroke-width:8}</style>
<path fill="none" stroke="black" d="M203.99,-108.81C203.99,-92.27 203.99,-66.98 203.99,-47.44"/>
<polygon fill="#a6c040" stroke="black" points="207.49,-47.66 203.99,-37.66 200.49,-47.66 207.49,-47.66"/>
</g>
<!-- psycopg -->
<g id="node3" class="node">
<title>psycopg</title><style>.edge>path:hover{stroke-width:8}</style>
<ellipse fill="#26d96e" stroke="black" cx="370.99" cy="-127" rx="31.21" ry="18"/>
<text xml:space="preserve" text-anchor="middle" x="370.99" y="-123.12" font-family="Helvetica,sans-Serif" font-size="10.00" fill="#000000">psycopg</text>
</g>
<!-- src_db -->
<g id="node7" class="node">
<title>src_db</title><style>.edge>path:hover{stroke-width:8}</style>
<ellipse fill="#4c75b3" stroke="black" cx="277.99" cy="-18" rx="27" ry="18"/>
<text xml:space="preserve" text-anchor="middle" x="277.99" y="-14.12" font-family="Helvetica,sans-Serif" font-size="10.00" fill="#ffffff">src.db</text>
</g>
<!-- psycopg&#45;&gt;src_db -->
<g id="edge4" class="edge">
<title>psycopg&#45;&gt;src_db</title><style>.edge>path:hover{stroke-width:8}</style>
<path fill="none" stroke="black" d="M370.54,-108.8C370.38,-98.43 370.37,-84.95 370.99,-73"/>
<path fill="none" stroke="black" d="M370.99,-72C371.18,-68.34 335.78,-49.05 308.61,-34.79"/>
<polygon fill="#26d96e" stroke="black" points="310.51,-31.83 300.03,-30.31 307.28,-38.04 310.51,-31.83"/>
</g>
<!-- src_load_data -->
<g id="node8" class="node">
<title>src_load_data</title><style>.edge>path:hover{stroke-width:8}</style>
<ellipse fill="#4971ac" stroke="black" cx="480.99" cy="-18" rx="44.08" ry="18"/>
<text xml:space="preserve" text-anchor="middle" x="480.99" y="-14.12" font-family="Helvetica,sans-Serif" font-size="10.00" fill="#ffffff">src.load_data</text>
</g>
<!-- psycopg&#45;&gt;src_load_data -->
<g id="edge5" class="edge">
<title>psycopg&#45;&gt;src_load_data</title><style>.edge>path:hover{stroke-width:8}</style>
<path fill="none" stroke="black" d="M370.99,-72C371.39,-64.19 407.9,-47.77 438.74,-35.26"/>
<polygon fill="#26d96e" stroke="black" points="439.95,-38.54 447.94,-31.58 437.35,-32.04 439.95,-38.54"/>
</g>
<!-- src_query_data -->
<g id="node9" class="node">
<title>src_query_data</title><style>.edge>path:hover{stroke-width:8}</style>
<ellipse fill="#4971ac" stroke="black" cx="370.99" cy="-18" rx="47.63" ry="18"/>
<text xml:space="preserve" text-anchor="middle" x="370.99" y="-14.12" font-family="Helvetica,sans-Serif" font-size="10.00" fill="#ffffff">src.query_data</text>
</g>
<!-- psycopg&#45;&gt;src_query_data -->
<g id="edge6" class="edge">
<title>psycopg&#45;&gt;src_query_data</title><style>.edge>path:hover{stroke-width:8}</style>
<path fill="none" stroke="black" d="M370.99,-72C371.4,-64.07 371.53,-55.46 371.53,-47.53"/>
<polygon fill="#26d96e" stroke="black" points="375.03,-47.68 371.45,-37.71 368.03,-47.74 375.03,-47.68"/>
</g>
<!-- psycopg_sql -->
<g id="node4" class="node">
<title>psycopg_sql</title><style>.edge>path:hover{stroke-width:8}</style>
<ellipse fill="#47c278" stroke="black" cx="480.99" cy="-127" rx="40.53" ry="18"/>
<text xml:space="preserve" text-anchor="middle" x="480.99" y="-123.12" font-family="Helvetica,sans-Serif" font-size="10.00" fill="#000000">psycopg.sql</text>
</g>
<!-- psycopg_sql&#45;&gt;src_load_data -->
<g id="edge7" class="edge">
<title>psycopg_sql&#45;&gt;src_load_data</title><style>.edge>path:hover{stroke-width:8}</style>
<path fill="none" stroke="black" d="M480.99,-72C477.85,-64.47 476.88,-55.79 476.96,-47.67"/>
<polygon fill="#47c278" stroke="black" points="480.44,-48.08 477.6,-37.88 473.46,-47.63 480.44,-48.08"/>
</g>
<!-- psycopg_sql&#45;&gt;src_query_data -->
<g id="edge8" class="edge">
<title>psycopg_sql&#45;&gt;src_query_data</title><style>.edge>path:hover{stroke-width:8}</style>
<path fill="none" stroke="black" d="M480.99,-72C475.44,-58.7 444.76,-44.58 417.21,-34.26"/>
<polygon fill="#47c278" stroke="black" points="418.49,-31 407.89,-30.88 416.1,-37.58 418.49,-31"/>
<path fill="none" stroke="black" d="M484.28,-108.63C485.51,-97.95 485.66,-84.21 480.99,-73"/>
</g>
<!-- urllib3 -->
<g id="node11" class="node">
<title>urllib3</title><style>.edge>path:hover{stroke-width:8}</style>
<ellipse fill="#ae33cc" stroke="black" cx="125.99" cy="-127" rx="27" ry="18"/>
<text xml:space="preserve" text-anchor="middle" x="125.99" y="-123.12" font-family="Helvetica,sans-Serif" font-size="10.00" fill="#ffffff">urllib3</text>
</g>
<!-- urllib3&#45;&gt;src_clean -->
<g id="edge9" class="edge">
<title>urllib3&#45;&gt;src_clean</title><style>.edge>path:hover{stroke-width:8}</style>
<path fill="none" stroke="black" d="M126.83,-108.7C126.76,-98.04 125.57,-84.31 120.99,-73"/>
<path fill="none" stroke="black" d="M120.99,-72C116.33,-60.51 90.79,-45.88 68.42,-34.9"/>
<polygon fill="#ae33cc" stroke="black" points="70.02,-31.78 59.48,-30.63 67,-38.1 70.02,-31.78"/>
</g>
<!-- urllib3&#45;&gt;src_scrape -->
<g id="edge10" class="edge">
<title>urllib3&#45;&gt;src_scrape</title><style>.edge>path:hover{stroke-width:8}</style>
<path fill="none" stroke="black" d="M120.99,-72C117.92,-64.44 116.98,-55.75 117.06,-47.63"/>
<polygon fill="#ae33cc" stroke="black" points="120.54,-48.05 117.68,-37.85 113.55,-47.6 120.54,-48.05"/>
</g>
</g>
</svg>
